<svg width="20" height="16" viewBox="0 0 20 16" fill="none" xmlns="http://www.w3.org/2000/svg">
<path d="M6.1 16C5.55 16 5.07917 15.8042 4.6875 15.4125C4.29583 15.0208 4.1 14.55 4.1 14V12C4.1 11.7167 4.19583 11.4792 4.3875 11.2875C4.57917 11.0958 4.81667 11 5.1 11H7.1V8.75C6.6 8.71667 6.10417 8.6125 5.6125 8.4375C5.12083 8.2625 4.69167 8 4.325 7.65C4.225 7.55 4.14583 7.4375 4.0875 7.3125C4.02917 7.1875 4 7.05833 4 6.925V6.25H3.275C3.14167 6.25 3.0125 6.225 2.8875 6.175C2.7625 6.125 2.65 6.05 2.55 5.95L0.3 3.7C0.1 3.5 0 3.26667 0 3C0 2.73333 0.1 2.5 0.3 2.3C0.783333 1.81667 1.43333 1.4625 2.25 1.2375C3.06667 1.0125 3.81667 0.9 4.5 0.9C4.95 0.9 5.3875 0.933333 5.8125 1C6.2375 1.06667 6.66667 1.19167 7.1 1.375C7.1 0.991667 7.23333 0.666667 7.5 0.4C7.76667 0.133333 8.09167 0 8.475 0H17.1C17.65 0 18.1208 0.195833 18.5125 0.5875C18.9042 0.979167 19.1 1.45 19.1 2V13C19.1 13.8333 18.8083 14.5417 18.225 15.125C17.6417 15.7083 16.9333 16 16.1 16H6.1ZM9.1 11H14.1C14.3833 11 14.6208 11.0958 14.8125 11.2875C15.0042 11.4792 15.1 11.7167 15.1 12V13C15.1 13.2833 15.1958 13.5208 15.3875 13.7125C15.5792 13.9042 15.8167 14 16.1 14C16.3833 14 16.6208 13.9042 16.8125 13.7125C17.0042 13.5208 17.1 13.2833 17.1 13V2H9.1V2.6L14.825 8.325C14.975 8.475 15.0667 8.64583 15.1 8.8375C15.1333 9.02917 15.1083 9.21667 15.025 9.4C14.9417 9.58333 14.825 9.72917 14.675 9.8375C14.525 9.94583 14.3333 10 14.1 10C13.9667 10 13.8375 9.97083 13.7125 9.9125C13.5875 9.85417 13.4833 9.78333 13.4 9.7L10.85 7.15L10.65 7.35C10.4167 7.58333 10.1708 7.79167 9.9125 7.975C9.65417 8.15833 9.38333 8.3 9.1 8.4V11ZM3.7 4.25H5C5.28333 4.25 5.52083 4.34583 5.7125 4.5375C5.90417 4.72917 6 4.96667 6 5.25V6.4C6.2 6.53333 6.40833 6.625 6.625 6.675C6.84167 6.725 7.06667 6.75 7.3 6.75C7.68333 6.75 8.02917 6.69167 8.3375 6.575C8.64583 6.45833 8.95 6.25 9.25 5.95L9.45 5.75L8.05 4.35C7.56667 3.86667 7.025 3.50417 6.425 3.2625C5.825 3.02083 5.18333 2.9 4.5 2.9C4.16667 2.9 3.85 2.925 3.55 2.975C3.25 3.025 2.95 3.1 2.65 3.2L3.7 4.25ZM13.1 13H6.1V14H13.25C13.2 13.85 13.1625 13.6917 13.1375 13.525C13.1125 13.3583 13.1 13.1833 13.1 13Z" fill="black"/>
</svg>
