<svg width="146" height="40" viewBox="0 0 146 40" fill="none" xmlns="http://www.w3.org/2000/svg">
<path d="M43.0967 13.4211H46.6228V27.9069H43.0967V13.4211ZM48.0289 22.458C48.0289 18.87 50.2258 16.7194 53.5213 16.7194C56.8168 16.7194 59.0137 18.87 59.0137 22.458C59.0137 26.046 56.8937 28.2189 53.5213 28.2189C50.149 28.2189 48.0289 26.124 48.0289 22.458ZM55.5205 22.458C55.5205 20.4857 54.7626 19.3269 53.5543 19.3269C52.3459 19.3269 51.599 20.4411 51.599 22.458C51.599 24.4749 52.3459 25.578 53.5543 25.578C54.7626 25.578 55.5425 24.4749 55.5425 22.4691L55.5205 22.458ZM60.4198 28.6534H63.8251C63.9801 29.0253 64.2509 29.3356 64.596 29.5367C64.9412 29.738 65.3417 29.8191 65.7365 29.7677C67.0876 29.7677 67.7906 29.0323 67.7906 27.9403V25.9346H67.8016C67.5106 26.5591 67.04 27.0796 66.4519 27.4277C65.8637 27.7758 65.1853 27.9351 64.5062 27.8846C61.9247 27.8846 60.2111 25.89 60.2111 22.458C60.2111 19.026 61.8478 16.8866 64.605 16.8866C65.3016 16.8488 65.9926 17.031 66.5827 17.4082C67.1729 17.7854 67.6333 18.3389 67.9005 18.9926H67.8016V16.9757H71.2948V27.8289C71.2948 30.4474 69.0099 32.0854 65.6486 32.0854C62.5948 32.0743 60.6395 30.6591 60.4418 28.6646L60.4198 28.6534ZM67.8016 22.458C67.8016 20.7086 67.0107 19.6054 65.7584 19.6054C64.5062 19.6054 63.7372 20.7197 63.7372 22.458C63.7372 24.1963 64.4952 25.2214 65.7584 25.2214C67.0217 25.2214 67.8016 24.2743 67.8016 22.458ZM72.6899 22.458C72.6899 18.87 74.8868 16.7194 78.1823 16.7194C81.4777 16.7194 83.6747 18.87 83.6747 22.458C83.6747 26.046 81.5436 28.2189 78.1823 28.2189C74.8209 28.2189 72.7118 26.124 72.7118 22.458H72.6899ZM80.1815 22.458C80.1815 20.4857 79.4126 19.3269 78.2152 19.3269C77.0179 19.3269 76.2599 20.4411 76.2599 22.458C76.2599 24.4749 77.0069 25.578 78.2152 25.578C79.4236 25.578 80.2035 24.4749 80.2035 22.4691L80.1815 22.458ZM85.1027 14.3349C85.0874 13.9705 85.1799 13.6098 85.3682 13.2992C85.5566 12.9886 85.8324 12.7423 86.1599 12.592C86.4875 12.4416 86.8519 12.3941 87.2062 12.4556C87.5606 12.517 87.8887 12.6846 88.1484 12.9368C88.4081 13.189 88.5875 13.5142 88.6635 13.8706C88.7394 14.2271 88.7085 14.5985 88.5747 14.9369C88.4409 15.2754 88.2104 15.5656 87.9127 15.7701C87.615 15.9745 87.2638 16.084 86.9043 16.0843C86.6746 16.0902 86.4459 16.0497 86.2317 15.9654C86.0175 15.8809 85.8218 15.7541 85.6563 15.5924C85.4907 15.4308 85.3585 15.2373 85.2673 15.0233C85.176 14.8093 85.1276 14.5791 85.1247 14.346L85.1027 14.3349ZM85.1027 16.9646H88.6728V27.9514H85.1577L85.1027 16.9646ZM101.514 22.458C101.514 26.0349 99.9323 28.1074 97.241 28.1074C96.552 28.1506 95.8666 27.9781 95.2772 27.6135C94.6879 27.2488 94.2231 26.7094 93.9455 26.0683H93.8796V31.4837H90.3535V16.998H93.8577V18.9591H93.9236C94.1916 18.3054 94.6519 17.7513 95.2415 17.3724C95.8313 16.9935 96.5218 16.8084 97.219 16.842C99.9872 16.8197 101.58 18.8811 101.58 22.4691L101.514 22.458ZM97.9221 22.458C97.9221 20.7197 97.1202 19.5943 95.8789 19.5943C94.6376 19.5943 93.8577 20.7086 93.8467 22.458C93.8357 24.2074 94.6376 25.3106 95.8789 25.3106C97.1202 25.3106 97.988 24.2743 97.988 22.4691L97.9221 22.458ZM107.534 16.7083C110.489 16.7083 112.323 18.1234 112.345 20.3966H109.127C109.127 19.6054 108.479 19.1151 107.512 19.1151C106.545 19.1151 106.084 19.494 106.084 20.0623C106.084 20.6306 106.49 20.8089 107.303 20.976L109.566 21.444C111.763 21.912 112.642 22.8034 112.642 24.4637C112.642 26.6923 110.61 28.2077 107.589 28.2077C104.568 28.2077 102.602 26.7369 102.459 24.4971H105.875C105.974 25.3106 106.611 25.7897 107.644 25.7897C108.676 25.7897 109.16 25.4554 109.16 24.8649C109.16 24.2743 108.83 24.174 107.984 23.9957L105.941 23.5611C103.821 23.1043 102.711 21.9789 102.711 20.2963C102.777 18.1123 104.623 16.7194 107.6 16.7194L107.534 16.7083ZM124.45 27.9403H121.034V25.8789H120.968C120.777 26.5665 120.361 27.1674 119.787 27.5826C119.214 27.9979 118.519 28.2026 117.816 28.1631C117.285 28.1806 116.756 28.0841 116.265 27.8798C115.774 27.6755 115.33 27.3681 114.964 26.9778C114.597 26.5873 114.317 26.1228 114.14 25.6147C113.963 25.1065 113.894 24.5661 113.938 24.0291V16.9757H117.464V23.2603C117.464 24.5529 118.134 25.2549 119.233 25.2549C119.491 25.2529 119.745 25.1948 119.979 25.0847C120.213 24.9745 120.42 24.8147 120.587 24.6162C120.755 24.4176 120.879 24.1848 120.951 23.9337C121.021 23.6824 121.039 23.4186 121.001 23.16V16.9757H124.516L124.45 27.9403ZM126.153 16.9646H129.58V19.0817H129.657C129.846 18.4035 130.253 17.8081 130.811 17.3887C131.37 16.9694 132.05 16.7496 132.744 16.764C133.442 16.7025 134.137 16.9071 134.693 17.3377C135.25 17.7684 135.628 18.3943 135.754 19.0929H135.908C136.127 18.3905 136.569 17.7815 137.165 17.3604C137.761 16.9392 138.478 16.7296 139.203 16.764C139.685 16.7454 140.166 16.8303 140.614 17.0132C141.062 17.1959 141.466 17.4726 141.801 17.825C142.136 18.1774 142.393 18.5976 142.557 19.058C142.722 19.5184 142.787 20.0087 142.751 20.4969V27.9514H139.203V21.4106C139.203 20.2963 138.687 19.6723 137.687 19.6723C137.465 19.6686 137.246 19.7136 137.042 19.8041C136.839 19.8947 136.659 20.0287 136.512 20.197C136.365 20.3654 136.255 20.5638 136.19 20.7791C136.126 20.9944 136.109 21.2211 136.138 21.444V27.9514H132.777V21.3771C132.777 20.2629 132.239 19.6723 131.272 19.6723C131.048 19.6705 130.826 19.7173 130.622 19.8096C130.416 19.9019 130.234 20.0376 130.085 20.2075C129.936 20.3774 129.825 20.5776 129.759 20.7947C129.692 21.0119 129.673 21.2409 129.701 21.4663V27.9514H126.175L126.153 16.9646Z" fill="#969696"/>
<path d="M36.1213 14.3683C36.1214 12.1506 35.4612 9.98445 34.2272 8.15375C32.9932 6.32304 31.2427 4.91308 29.2054 4.10857C27.168 3.30404 24.9385 3.14247 22.8091 3.645C20.6796 4.14753 18.7494 5.29074 17.2713 6.92489H3.56226V36.2752H32.5073V22.5583C33.6434 21.5276 34.5525 20.2655 35.1752 18.8542C35.7979 17.443 36.1203 15.9145 36.1213 14.3683ZM30.552 14.3683C30.5542 15.431 30.2455 16.4705 29.6651 17.3553C29.0845 18.2399 28.2585 18.9301 27.2912 19.3383C26.3238 19.7465 25.259 19.8545 24.2311 19.6485C23.2034 19.4426 22.2589 18.9319 21.5173 18.1812C20.7757 17.4305 20.2704 16.4735 20.0652 15.4313C19.86 14.3893 19.9643 13.3087 20.3647 12.3267C20.7651 11.3447 21.4437 10.5052 22.3146 9.91454C23.1856 9.32389 24.2097 9.00862 25.2573 9.0086C26.6596 9.0086 28.0047 9.57293 28.9973 10.5778C29.99 11.5826 30.5492 12.9458 30.552 14.3683ZM26.938 30.6257H9.13157V12.5743H14.5581C14.4533 13.1666 14.3981 13.7667 14.3933 14.3683C14.3963 17.2902 15.5418 20.0915 17.5786 22.1576C19.6153 24.2236 22.3769 25.3857 25.2573 25.3886C25.8205 25.3856 26.3825 25.3371 26.938 25.2437V30.6257Z" fill="#969696"/>
</svg>
