<svg width="95" height="49" viewBox="0 0 95 49" fill="none" xmlns="http://www.w3.org/2000/svg">
<path d="M2.54907 28.1924H5.23165V41.3975H2.54907V28.1924Z" fill="#969696"/>
<path d="M6.78757 36.8733C6.7858 35.9248 7.06434 34.9971 7.58794 34.2076C8.11155 33.418 8.85668 32.8022 9.72905 32.438C10.6014 32.0738 11.5617 31.9776 12.4886 32.1616C13.4154 32.3455 14.2671 32.8014 14.9357 33.4715C15.6045 34.1415 16.0601 34.9956 16.2451 35.9257C16.4301 36.8559 16.3361 37.8202 15.9749 38.6967C15.6137 39.5731 15.0017 40.3223 14.2163 40.8494C13.4309 41.3766 12.5073 41.6579 11.5626 41.6579C10.9342 41.6652 10.3108 41.5464 9.72886 41.3086C9.14689 41.0708 8.61804 40.7188 8.17332 40.2731C7.72861 39.8276 7.37697 39.2973 7.13901 38.7134C6.90106 38.1296 6.78157 37.504 6.78757 36.8733ZM13.637 36.8733C13.6265 36.4638 13.4959 36.0665 13.2617 35.7312C13.0274 35.3959 12.6998 35.1374 12.3199 34.9879C11.94 34.8385 11.5247 34.8049 11.126 34.8913C10.7271 34.9776 10.3625 35.1801 10.0777 35.4733C9.79296 35.7666 9.60064 36.1377 9.52483 36.5402C9.44903 36.9426 9.49314 37.3587 9.65159 37.7361C9.8101 38.1135 10.0759 38.4356 10.4158 38.6622C10.7557 38.8887 11.1546 39.0096 11.5626 39.0097C11.8416 39.0176 12.1194 38.9673 12.3782 38.862C12.637 38.7567 12.8712 38.5987 13.0662 38.3979C13.2611 38.1971 13.4125 37.958 13.5107 37.6957C13.609 37.4332 13.652 37.1532 13.637 36.8733Z" fill="#969696"/>
<path d="M27.1214 32.3487V40.9486C27.1214 43.9918 24.7518 45.2756 22.3554 45.2756C21.5127 45.3385 20.669 45.1674 19.9167 44.781C19.1644 44.3947 18.5325 43.808 18.0902 43.0852L20.3972 41.7476C20.5802 42.118 20.8699 42.4248 21.2286 42.628C21.5873 42.8313 21.9985 42.9218 22.4091 42.8876C22.6792 42.9329 22.9561 42.9152 23.2184 42.8359C23.4807 42.7567 23.7213 42.6181 23.9217 42.4308C24.1221 42.2434 24.277 42.0123 24.3745 41.7553C24.4719 41.4984 24.5092 41.2224 24.4835 40.9486V40.1138C24.1682 40.5033 23.7658 40.8128 23.3091 41.0171C22.8524 41.2214 22.3541 41.3148 21.8547 41.2898C20.6404 41.2898 19.476 40.8055 18.6173 39.9436C17.7587 39.0816 17.2764 37.9125 17.2764 36.6935C17.2764 35.4745 17.7587 34.3055 18.6173 33.4436C19.476 32.5816 20.6404 32.0974 21.8547 32.0974C22.3538 32.0744 22.8513 32.1688 23.3077 32.373C23.7642 32.5771 24.1668 32.8854 24.4835 33.2733V32.3756L27.1214 32.3487ZM24.4835 36.6935C24.5014 36.257 24.3888 35.825 24.1602 35.4531C23.9315 35.0813 23.5973 34.7866 23.2006 34.6071C22.8038 34.4274 22.3625 34.371 21.9336 34.4452C21.5046 34.5192 21.1076 34.7205 20.7935 35.0229C20.4793 35.3254 20.2624 35.7152 20.1708 36.1423C20.079 36.5695 20.1167 37.0145 20.2789 37.4199C20.4411 37.8255 20.7204 38.1729 21.0808 38.4178C21.4413 38.6628 21.8665 38.7938 22.3017 38.7942C22.5859 38.8143 22.871 38.7746 23.1388 38.6773C23.4067 38.5801 23.6513 38.4277 23.8569 38.2298C24.0624 38.0318 24.2244 37.7929 24.3323 37.5283C24.4403 37.2637 24.4918 36.9794 24.4835 36.6935Z" fill="#969696"/>
<path d="M28.6684 36.8733C28.6666 35.9248 28.9452 34.9971 29.4688 34.2076C29.9924 33.418 30.7376 32.8022 31.6099 32.438C32.4822 32.0738 33.4426 31.9776 34.3694 32.1616C35.2963 32.3455 36.148 32.8014 36.8167 33.4715C37.4853 34.1415 37.941 34.9956 38.126 35.9257C38.3109 36.8559 38.2169 37.8202 37.8557 38.6967C37.4946 39.5731 36.8826 40.3223 36.0972 40.8494C35.3117 41.3766 34.3882 41.6579 33.4434 41.6579C32.8151 41.6652 32.1917 41.5464 31.6097 41.3086C31.0277 41.0708 30.4988 40.7188 30.0542 40.2731C29.6095 39.8276 29.2578 39.2973 29.0198 38.7134C28.7819 38.1296 28.6624 37.504 28.6684 36.8733ZM35.518 36.8733C35.5074 36.4638 35.3768 36.0665 35.1425 35.7312C34.9082 35.3959 34.5807 35.1374 34.2008 34.9879C33.821 34.8385 33.4056 34.8049 33.0068 34.8913C32.6079 34.9776 32.2434 35.1801 31.9585 35.4733C31.6738 35.7666 31.4815 36.1377 31.4056 36.5402C31.3299 36.9426 31.374 37.3587 31.5324 37.7361C31.6909 38.1135 31.9567 38.4356 32.2966 38.6622C32.6365 38.8887 33.0354 39.0096 33.4434 39.0097C33.7211 39.0151 33.9968 38.963 34.2535 38.8565C34.5101 38.75 34.7422 38.5916 34.9352 38.3911C35.1282 38.1907 35.2779 37.9524 35.3752 37.6913C35.4723 37.4301 35.5148 37.1516 35.5001 36.8733H35.518Z" fill="#969696"/>
<path d="M39.4612 29.9251C39.4612 29.6019 39.5566 29.286 39.7354 29.0174C39.9143 28.7487 40.1684 28.5393 40.4658 28.4156C40.7632 28.2919 41.0904 28.2596 41.4061 28.3227C41.7218 28.3857 42.0117 28.5413 42.2394 28.7697C42.467 28.9983 42.6219 29.2894 42.6847 29.6063C42.7476 29.9233 42.7153 30.2518 42.5922 30.5503C42.469 30.8488 42.2604 31.104 41.9928 31.2835C41.7251 31.463 41.4105 31.5588 41.0886 31.5588C40.6577 31.5566 40.2451 31.3836 39.9404 31.0777C39.6357 30.7719 39.4635 30.3577 39.4612 29.9251ZM39.7383 32.3488H42.4209V41.3976H39.7383V32.3488Z" fill="#969696"/>
<path d="M54.1168 36.8732C54.1493 37.4713 54.0637 38.0701 53.8649 38.6348C53.6659 39.1996 53.3578 39.7193 52.958 40.164C52.5582 40.6087 52.0748 40.9697 51.5355 41.2261C50.9962 41.4825 50.4118 41.6293 49.8158 41.658C49.3154 41.682 48.8158 41.5957 48.3524 41.4049C47.8889 41.2141 47.4727 40.9236 47.1332 40.5538V45.0423H44.4507V32.3488H47.1332V33.2016C47.4727 32.8318 47.8889 32.5413 48.3524 32.3505C48.8158 32.1597 49.3154 32.0734 49.8158 32.0974C50.411 32.1262 50.9947 32.2726 51.5333 32.5285C52.0721 32.7844 52.5551 33.1445 52.9547 33.5882C53.3544 34.032 53.6627 34.5506 53.8621 35.1143C54.0616 35.678 54.1482 36.2758 54.1168 36.8732ZM51.4343 36.8732C51.4237 36.4519 51.2902 36.0429 51.0503 35.697C50.8105 35.3511 50.4749 35.0833 50.085 34.927C49.6952 34.7707 49.2681 34.7325 48.8569 34.8174C48.4457 34.9022 48.0682 35.1063 47.7714 35.4044C47.4745 35.7024 47.2713 36.0812 47.1867 36.4941C47.1023 36.9069 47.1402 37.3356 47.2959 37.727C47.4517 38.1183 47.7183 38.4553 48.0629 38.6961C48.4075 38.9369 48.8149 39.0709 49.2346 39.0815C49.5275 39.1003 49.8209 39.0558 50.0953 38.9512C50.3697 38.8465 50.6185 38.6842 50.8252 38.475C51.0318 38.2658 51.1916 38.0146 51.2936 37.7384C51.3955 37.4621 51.4374 37.1671 51.4164 36.8732H51.4343Z" fill="#969696"/>
<path d="M62.4687 38.6865C62.4687 40.7692 60.6804 41.6578 58.7131 41.6578C57.9273 41.7277 57.1386 41.5598 56.4485 41.1758C55.7586 40.7919 55.1988 40.2094 54.8413 39.5034L57.1841 38.1658C57.2792 38.4924 57.4828 38.7764 57.7609 38.9707C58.0391 39.165 58.3751 39.258 58.7131 39.2341C59.3659 39.2341 59.6878 39.0276 59.6878 38.6685C59.6878 37.6721 55.2169 38.2018 55.2169 35.0777C55.2169 33.1028 56.88 32.1063 58.7936 32.1063C59.4997 32.0848 60.1988 32.2532 60.8182 32.5942C61.4377 32.9351 61.955 33.4362 62.3168 34.0453L59.9651 35.2842C59.8612 35.0471 59.6909 34.8454 59.475 34.7036C59.2591 34.5617 59.0069 34.4859 58.7489 34.4852C58.284 34.4852 57.9978 34.6648 57.9978 34.9969C58.0336 36.0292 62.4687 35.338 62.4687 38.6865Z" fill="#969696"/>
<path d="M72.3407 32.3489V41.3977H69.658V40.5539C69.346 40.9288 68.95 41.2243 68.5024 41.4162C68.0549 41.6081 67.5683 41.6909 67.0827 41.6581C65.2944 41.6581 63.7117 40.3563 63.7117 37.9057V32.3489H66.3942V37.5107C66.3707 37.7307 66.3962 37.9531 66.4689 38.162C66.5417 38.3708 66.6597 38.5608 66.8148 38.7181C66.9697 38.8754 67.1576 38.9961 67.3648 39.0714C67.572 39.1467 67.7934 39.1747 68.0127 39.1535C68.9964 39.1535 69.6849 38.5789 69.6849 37.2953V32.3489H72.3407Z" fill="#969696"/>
<path d="M87.8458 35.8498V41.3975H85.1631V36.0832C85.1631 35.1855 84.725 34.593 83.8666 34.593C83.0082 34.593 82.4538 35.2304 82.4538 36.2986V41.3975H79.7712V36.0832C79.7712 35.1855 79.342 34.593 78.4746 34.593C77.6073 34.593 77.0707 35.2304 77.0707 36.2986V41.3975H74.3882V32.3488H77.0707V33.1837C77.3511 32.8149 77.7188 32.5224 78.1405 32.3327C78.5622 32.143 79.0244 32.0621 79.485 32.0975C79.9477 32.0748 80.4084 32.173 80.822 32.3822C81.2357 32.5914 81.5884 32.9047 81.8457 33.2914C82.145 32.8871 82.5414 32.5655 82.9981 32.3567C83.4547 32.1479 83.9565 32.0587 84.4567 32.0975C86.4955 32.0975 87.8458 33.5876 87.8458 35.8498Z" fill="#969696"/>
<path d="M90.1351 32.2949C91.2413 32.2949 92.1381 31.3945 92.1381 30.284C92.1381 29.1735 91.2413 28.2732 90.1351 28.2732C89.0289 28.2732 88.1321 29.1735 88.1321 30.284C88.1321 31.3945 89.0289 32.2949 90.1351 32.2949Z" fill="#969696"/>
<path d="M32.9067 21.343C38.0872 21.343 42.2867 17.1269 42.2867 11.9261C42.2867 6.72534 38.0872 2.50928 32.9067 2.50928C27.7262 2.50928 23.5266 6.72534 23.5266 11.9261C23.5266 17.1269 27.7262 21.343 32.9067 21.343Z" fill="#969696"/>
<path d="M53.8755 21.343C59.0559 21.343 63.2555 17.1269 63.2555 11.9261C63.2555 6.72534 59.0559 2.50928 53.8755 2.50928C48.695 2.50928 44.4954 6.72534 44.4954 11.9261C44.4954 17.1269 48.695 21.343 53.8755 21.343Z" fill="#969696"/>
<path d="M21.318 2.50928H2.56689V21.334H21.318V2.50928Z" fill="#969696"/>
</svg>
