<svg width="114" height="29" viewBox="0 0 114 29" fill="none" xmlns="http://www.w3.org/2000/svg">
<path d="M3.5835 26.3568H27.9131V2.39185H3.5835V26.3568ZM23.2302 12.0684H18.0893V7.00451H23.2302V12.0684ZM8.2654 7.00451H13.4093V16.6802H23.2302V21.7441H8.2654V7.00451ZM43.7563 2.39185C41.3502 2.39185 38.9983 3.09461 36.9978 4.41126C34.9973 5.72791 33.4381 7.59931 32.5174 9.78883C31.5967 11.9784 31.3559 14.3876 31.8252 16.7119C32.2946 19.0363 33.4531 21.1714 35.1544 22.8471C36.8557 24.523 39.0232 25.6642 41.383 26.1265C43.7428 26.5888 46.1886 26.3516 48.4115 25.4447C50.6344 24.5378 52.5342 23.0019 53.8709 21.0314C55.2076 19.0609 55.921 16.7442 55.921 14.3743C55.9173 11.1975 54.6344 8.15187 52.3538 5.90553C50.0733 3.65918 46.9814 2.39555 43.7563 2.39185ZM43.7563 21.7441C42.2765 21.7441 40.8299 21.3119 39.5995 20.502C38.3691 19.6923 37.4101 18.5413 36.8438 17.1946C36.2775 15.848 36.1294 14.3662 36.418 12.9365C36.7067 11.5069 37.4194 10.1938 38.4657 9.16307C39.5121 8.13239 40.8452 7.43048 42.2966 7.14612C43.7479 6.86175 45.2523 7.0077 46.6195 7.5655C47.9866 8.1233 49.1551 9.06791 49.9772 10.2799C50.7994 11.4918 51.2382 12.9167 51.2382 14.3743C51.2352 16.328 50.4459 18.2008 49.0434 19.5823C47.6409 20.9638 45.7396 21.7411 43.7563 21.7441ZM99.4525 2.39185C97.0461 2.39167 94.6944 3.09427 92.6938 4.4108C90.6932 5.72734 89.1339 7.59868 88.213 9.78817C87.2922 11.9776 87.0511 14.387 87.5204 16.7114C87.9896 19.0358 89.1481 21.171 90.8494 22.8469C92.5506 24.5227 94.7181 25.6641 97.0784 26.1265C99.4373 26.5888 101.884 26.3516 104.107 25.4448C106.329 24.5379 108.229 23.002 109.566 21.0315C110.903 19.061 111.616 16.7443 111.616 14.3743C111.613 11.1977 110.33 8.15217 108.05 5.90586C105.77 3.65954 102.677 2.39581 99.4525 2.39185ZM99.4525 21.7441C97.9728 21.7443 96.5263 21.3122 95.2955 20.5025C94.065 19.6928 93.1059 18.5419 92.5394 17.1952C91.9729 15.8486 91.8247 14.3667 92.1132 12.9371C92.4019 11.5075 93.1144 10.1942 94.1607 9.1634C95.207 8.13262 96.5405 7.43062 97.9918 7.14618C99.443 6.86175 100.947 7.00764 102.314 7.56542C103.682 8.12319 104.851 9.06779 105.673 10.2798C106.494 11.4918 106.933 12.9167 106.933 14.3743C106.931 16.3278 106.141 18.2005 104.739 19.5819C103.337 20.9634 101.436 21.7409 99.4525 21.7441ZM71.6039 2.39185C69.1979 2.39185 66.8459 3.09461 64.8455 4.41126C62.845 5.72791 61.2858 7.59931 60.3651 9.78883C59.4443 11.9784 59.2035 14.3876 59.6728 16.7119C60.1423 19.0363 61.3008 21.1714 63.002 22.8471C64.7033 24.523 66.8709 25.6642 69.2306 26.1265C71.5903 26.5888 74.0363 26.3516 76.2592 25.4447C78.482 24.5378 80.3818 23.0019 81.7186 21.0314C83.0552 19.0609 83.7687 16.7442 83.7687 14.3743C83.7649 11.1975 82.482 8.15187 80.2015 5.90553C77.921 3.65918 74.8291 2.39555 71.6039 2.39185ZM71.6039 21.7441C70.2251 21.7447 68.8731 21.3702 67.6968 20.6617C66.5207 19.9532 65.566 18.9385 64.9384 17.7293C64.3108 16.5201 64.0345 15.1636 64.1402 13.8096C64.2458 12.4555 64.7292 11.1566 65.5371 10.056C66.3449 8.95558 67.4458 8.09634 68.718 7.57323C69.9904 7.0501 71.3847 6.88344 72.7471 7.09162C74.1095 7.29981 75.387 7.87475 76.4386 8.75298C77.4902 9.63121 78.275 10.7786 78.7064 12.0684H71.6039V16.6802H78.7064C78.2123 18.152 77.2604 19.4333 75.9855 20.3422C74.7107 21.2512 73.1777 21.7416 71.6039 21.7441Z" fill="#969696"/>
</svg>
