<svg width="138" height="39" viewBox="0 0 138 39" fill="none" xmlns="http://www.w3.org/2000/svg">
<path d="M47.2737 28.3925H51.6973V11.7373H47.2737V28.3925ZM47.2737 9.14008H51.6973V5.1792H47.2737V9.14008Z" fill="#969696"/>
<path d="M54.5491 33.8467H58.9727V26.5094H59.0372C59.9802 27.9379 61.5095 28.8794 63.8508 28.8794C68.1444 28.8794 71.072 25.4705 71.072 20.0811C71.072 14.8864 68.2422 11.2827 63.8185 11.2827C61.5417 11.2827 59.9802 12.3542 58.9073 13.8151H58.8096V11.7372H54.5491V33.8467ZM62.9078 25.2107C60.2733 25.2107 58.875 23.2303 58.875 20.2109C58.875 17.224 59.9802 14.8541 62.7456 14.8541C65.4777 14.8541 66.5829 17.0617 66.5829 20.2109C66.5829 23.3601 65.1523 25.2107 62.9078 25.2107Z" fill="#969696"/>
<path d="M79.8957 28.8794C84.0594 28.8794 86.9216 26.8665 86.9216 23.5225C86.9216 19.6266 83.8317 18.8474 81.0341 18.263C78.6596 17.776 76.4483 17.6461 76.4483 16.2176C76.4483 15.0164 77.5867 14.3671 79.3104 14.3671C81.1973 14.3671 82.3357 15.0164 82.5302 16.802H86.5307C86.2063 13.458 83.7663 11.2827 79.3758 11.2827C75.5698 11.2827 72.5777 13.0035 72.5777 16.6072C72.5777 20.2434 75.5053 21.055 78.4974 21.6395C80.7742 22.094 82.8878 22.2563 82.8878 23.8472C82.8878 25.016 81.7826 25.7627 79.8312 25.7627C77.8466 25.7627 76.4805 24.9185 76.1883 23.0031H72.0901C72.35 26.5418 75.0499 28.8794 79.8957 28.8794Z" fill="#969696"/>
<path d="M103.715 28.3925V11.7373H99.2909V21.3473C99.2909 23.555 98.0226 25.1134 95.9412 25.1134C94.0543 25.1134 93.1768 24.042 93.1768 22.0941V11.7373H88.7854V22.8407C88.7854 26.4769 90.8668 28.847 94.5751 28.847C96.9174 28.847 98.218 27.9704 99.3564 26.4446H99.4541V28.3925H103.715Z" fill="#969696"/>
<path d="M106.576 28.3924H111V18.7175C111 16.5098 112.204 15.0813 113.993 15.0813C115.619 15.0813 116.562 16.0552 116.562 17.9383V28.3924H120.986V18.7175C120.986 16.5098 122.124 15.0813 123.978 15.0813C125.605 15.0813 126.548 16.0552 126.548 17.9383V28.3924H130.971V17.1916C130.971 13.5553 128.987 11.2827 125.474 11.2827C123.36 11.2827 121.603 12.3866 120.465 14.2047H120.4C119.587 12.4515 117.896 11.2827 115.781 11.2827C113.472 11.2827 111.846 12.4515 110.936 13.9774H110.838V11.7372H106.576V28.3924Z" fill="#969696"/>
<path d="M132.578 9.00315C132.578 8.25604 133.186 7.65039 133.934 7.65039H136.644C137.393 7.65039 138 8.25604 138 9.00315C138 9.75026 137.393 10.3559 136.644 10.3559H133.934C133.186 10.3559 132.578 9.75026 132.578 9.00315Z" fill="#969696"/>
<path fill-rule="evenodd" clip-rule="evenodd" d="M19.6416 0.435547C30.1199 0.435547 38.6152 8.91465 38.6152 19.3742C38.6152 29.8337 30.1199 38.3128 19.6416 38.3128C9.16287 38.3128 0.668213 29.8337 0.668213 19.3742C0.668213 8.91465 9.16287 0.435547 19.6416 0.435547ZM18.9558 1.85271C16.7912 2.15677 14.7301 3.89287 13.1302 6.79646C12.6661 7.63868 12.2474 8.56917 11.8825 9.57384C14.058 9.02815 16.4478 8.70643 18.9558 8.65667V1.85271ZM10.2789 10.0287C10.7327 8.60716 11.2878 7.29928 11.9284 6.13668C12.7215 4.69729 13.6628 3.45431 14.7233 2.49964C8.95644 4.1714 4.4109 8.70868 2.73603 14.465C3.69247 13.4064 4.93769 12.4669 6.37976 11.6752C7.54454 11.0358 8.85474 10.4816 10.2789 10.0287ZM9.82324 11.6293C9.27652 13.8008 8.95426 16.1862 8.90436 18.6896H2.08789C2.39251 16.529 4.1318 14.4717 7.04079 12.8748C7.88454 12.4116 8.8167 11.9936 9.82324 11.6293ZM10.2762 18.6896C10.3329 15.9576 10.7269 13.3928 11.3789 11.1266C13.6492 10.4758 16.2188 10.0825 18.9558 10.026V12.9831C17.9347 15.5923 15.8522 17.6708 13.2382 18.6896H10.2762ZM8.90436 20.0587H2.08789C2.39251 22.2193 4.1318 24.2765 7.04079 25.8735C7.88454 26.3367 8.8167 26.7547 9.82324 27.119C9.27652 24.9475 8.95426 22.5621 8.90436 20.0587ZM11.3789 27.6217C10.7269 25.3555 10.3329 22.7907 10.2762 20.0587H13.2382C15.8522 21.0775 17.9347 23.156 18.9558 25.7652V28.7223C16.2188 28.6658 13.6492 28.2725 11.3789 27.6217ZM10.2789 28.7196C8.85474 28.2667 7.54454 27.7125 6.37976 27.0731C4.93769 26.2814 3.69247 25.3419 2.73603 24.2833C4.4109 30.0396 8.95644 34.5769 14.7233 36.2486C13.6628 35.2939 12.7215 34.051 11.9284 32.6116C11.2878 31.449 10.7327 30.1411 10.2789 28.7196ZM18.9558 36.8956C16.7912 36.5915 14.7301 34.8554 13.1302 31.9518C12.6661 31.1096 12.2474 30.1791 11.8825 29.1745C14.058 29.7201 16.4478 30.0419 18.9558 30.0916V36.8956ZM24.5598 36.2486C25.6203 35.2939 26.5614 34.051 27.3545 32.6116C27.9949 31.449 28.5508 30.1411 29.0043 28.7196C30.4282 28.2667 31.7383 27.7125 32.9033 27.0731C34.3453 26.2814 35.5909 25.3419 36.5471 24.2833C34.8718 30.0396 30.3267 34.5769 24.5598 36.2486ZM27.401 29.1745C27.0358 30.1791 26.6165 31.1096 26.1526 31.9518C24.5529 34.8554 22.4918 36.5915 20.3273 36.8956V30.0916C22.8353 30.0419 25.225 29.7201 27.401 29.1745ZM29.4596 27.119C30.4662 26.7547 31.3987 26.3367 32.2421 25.8735C35.1516 24.2766 36.8905 22.2193 37.1951 20.0587H30.3789C30.3286 22.5621 30.0061 24.9475 29.4596 27.119ZM29.0071 20.0587C28.9502 22.7907 28.5565 25.3555 27.9038 27.6217C25.6338 28.2725 23.0643 28.6658 20.3273 28.7223V25.7674C21.348 23.1572 23.431 21.0778 26.0457 20.0587H29.0071ZM30.3789 18.6896H37.1951C36.8905 16.529 35.1516 14.4717 32.2421 12.8748C31.3987 12.4116 30.4662 11.9936 29.4596 11.6293C30.0061 13.8008 30.3286 16.1862 30.3789 18.6896ZM27.9038 11.1266C28.5565 13.3928 28.9502 15.9576 29.0071 18.6896H26.0458C23.431 17.6705 21.348 15.5911 20.3273 12.981V10.026C23.0643 10.0825 25.6338 10.4758 27.9038 11.1266ZM29.0043 10.0287C30.4282 10.4816 31.7383 11.0358 32.9033 11.6752C34.3453 12.4669 35.5909 13.4064 36.5471 14.465C34.8718 8.70868 30.3267 4.1714 24.5598 2.49964C25.6203 3.45431 26.5614 4.69729 27.3545 6.13668C27.9949 7.29928 28.5508 8.60716 29.0043 10.0287ZM20.3273 1.85271C22.4918 2.15677 24.5529 3.89287 26.1526 6.79646C26.6165 7.63869 27.0358 8.56917 27.401 9.57384C25.225 9.02815 22.8353 8.70643 20.3273 8.65667V1.85271Z" fill="#969696"/>
</svg>
