<svg width="45" height="46" viewBox="0 0 45 46" fill="none" xmlns="http://www.w3.org/2000/svg">
<circle cx="22.5" cy="22.5327" r="22.5" fill="#70C505" fill-opacity="0.27"/>
<path d="M15 30.0327C14.45 30.0327 13.9792 29.8369 13.5875 29.4452C13.1958 29.0535 13 28.5827 13 28.0327V16.0327C13 15.4827 13.1958 15.0119 13.5875 14.6202C13.9792 14.2285 14.45 14.0327 15 14.0327H31C31.55 14.0327 32.0208 14.2285 32.4125 14.6202C32.8042 15.0119 33 15.4827 33 16.0327V28.0327C33 28.5827 32.8042 29.0535 32.4125 29.4452C32.0208 29.8369 31.55 30.0327 31 30.0327H15ZM31 18.0327L23.525 22.7077C23.4417 22.7577 23.3542 22.7952 23.2625 22.8202C23.1708 22.8452 23.0833 22.8577 23 22.8577C22.9167 22.8577 22.8292 22.8452 22.7375 22.8202C22.6458 22.7952 22.5583 22.7577 22.475 22.7077L15 18.0327V28.0327H31V18.0327ZM23 21.0327L31 16.0327H15L23 21.0327ZM15 18.2827V16.8077V16.8327V16.8202V18.2827Z" fill="#FE7C0F"/>
</svg>
