<svg width="45" height="46" viewBox="0 0 45 46" fill="none" xmlns="http://www.w3.org/2000/svg">
<circle cx="22.5" cy="22.5327" r="22.5" fill="#70C505" fill-opacity="0.27"/>
<path d="M14.05 31.0327C13.75 31.0327 13.5 30.9327 13.3 30.7327C13.1 30.5327 13 30.2827 13 29.9827V25.9327C13 25.716 13.075 25.5202 13.225 25.3452C13.375 25.1702 13.5667 25.0494 13.8 24.9827L17.25 24.2827C17.4833 24.2494 17.7208 24.2702 17.9625 24.3452C18.2042 24.4202 18.4 24.5327 18.55 24.6827L20.9 27.0327C21.5333 26.666 22.1333 26.2619 22.7 25.8202C23.2667 25.3785 23.8083 24.8994 24.325 24.3827C24.875 23.8494 25.3792 23.2952 25.8375 22.7202C26.2958 22.1452 26.6917 21.5494 27.025 20.9327L24.6 18.4827C24.4667 18.3494 24.375 18.191 24.325 18.0077C24.275 17.8244 24.2667 17.5994 24.3 17.3327L24.95 13.8327C24.9833 13.616 25.0917 13.4285 25.275 13.2702C25.4583 13.1119 25.6667 13.0327 25.9 13.0327H29.95C30.25 13.0327 30.5 13.1327 30.7 13.3327C30.9 13.5327 31 13.7827 31 14.0827C31 16.166 30.5458 18.2244 29.6375 20.2577C28.7292 22.291 27.4417 24.141 25.775 25.8077C24.1083 27.4744 22.2583 28.7619 20.225 29.6702C18.1917 30.5785 16.1333 31.0327 14.05 31.0327ZM27.95 19.0327C28.2333 18.3827 28.45 17.7244 28.6 17.0577C28.75 16.391 28.8667 15.716 28.95 15.0327H26.75L26.3 17.3827L27.95 19.0327ZM19 27.9327L17.35 26.2827L15 26.7827V28.9827C15.6833 28.9327 16.3583 28.816 17.025 28.6327C17.6917 28.4494 18.35 28.216 19 27.9327Z" fill="#FE7C0F"/>
</svg>
