<svg width="20" height="18" viewBox="0 0 20 18" fill="none" xmlns="http://www.w3.org/2000/svg">
<path d="M5 3.5V2.5C5 1.95 5.19583 1.47917 5.5875 1.0875C5.97917 0.695833 6.45 0.5 7 0.5H13C13.55 0.5 14.0208 0.695833 14.4125 1.0875C14.8042 1.47917 15 1.95 15 2.5V3.5H15.7C16.0833 3.5 16.4417 3.60833 16.775 3.825C17.1083 4.04167 17.35 4.33333 17.5 4.7L19.85 10.1C19.9 10.2333 19.9375 10.3667 19.9625 10.5C19.9875 10.6333 20 10.7667 20 10.9V15.5C20 16.05 19.8042 16.5208 19.4125 16.9125C19.0208 17.3042 18.55 17.5 18 17.5H2C1.45 17.5 0.979167 17.3042 0.5875 16.9125C0.195833 16.5208 0 16.05 0 15.5V10.9C0 10.7667 0.0125 10.6333 0.0375 10.5C0.0625 10.3667 0.1 10.2333 0.15 10.1L2.5 4.7C2.65 4.33333 2.89167 4.04167 3.225 3.825C3.55833 3.60833 3.91667 3.5 4.3 3.5H5ZM7 3.5H13V2.5H7V3.5ZM5 9.5V9.475C5 9.19167 5.09583 8.95417 5.2875 8.7625C5.47917 8.57083 5.71667 8.475 6 8.475C6.28333 8.475 6.52083 8.57083 6.7125 8.7625C6.90417 8.95417 7 9.19167 7 9.475V9.5H13V9.475C13 9.19167 13.0958 8.95417 13.2875 8.7625C13.4792 8.57083 13.7167 8.475 14 8.475C14.2833 8.475 14.5208 8.57083 14.7125 8.7625C14.9042 8.95417 15 9.19167 15 9.475V9.5H17.4L15.7 5.5H4.3L2.6 9.5H5ZM5 11.5H2V15.5H18V11.5H15V11.525C15 11.8083 14.9042 12.0458 14.7125 12.2375C14.5208 12.4292 14.2833 12.525 14 12.525C13.7167 12.525 13.4792 12.4292 13.2875 12.2375C13.0958 12.0458 13 11.8083 13 11.525V11.5H7V11.525C7 11.8083 6.90417 12.0458 6.7125 12.2375C6.52083 12.4292 6.28333 12.525 6 12.525C5.71667 12.525 5.47917 12.4292 5.2875 12.2375C5.09583 12.0458 5 11.8083 5 11.525V11.5Z" fill="black"/>
</svg>
